<svg width="836" height="233" viewBox="0 0 836 233" fill="none" xmlns="http://www.w3.org/2000/svg">
<path d="M20.1953 140.828H22.5156C28.0469 140.828 32.1719 139.844 34.8906 137.875C37.6094 135.859 38.9688 132.859 38.9688 128.875C38.9688 125.031 37.6797 122.195 35.1016 120.367C32.5234 118.539 28.5156 117.625 23.0781 117.625H20.1953V140.828ZM20.1953 184H26.2422C32.3359 184 36.8125 182.992 39.6719 180.977C42.5312 178.914 43.9609 175.75 43.9609 171.484C43.9609 166.844 42.4609 163.328 39.4609 160.938C36.4609 158.547 32.0547 157.352 26.2422 157.352H20.1953V184ZM0.929688 202V99.625H22.9375C27.3906 99.625 30.9297 99.8125 33.5547 100.188C36.1797 100.516 38.5 101.102 40.5156 101.945C46.1406 104.242 50.4531 107.547 53.4531 111.859C56.4531 116.172 57.9531 121.211 57.9531 126.977C57.9531 131.758 57.0625 135.836 55.2812 139.211C53.5 142.586 50.875 145.141 47.4062 146.875C52.4688 148.375 56.4531 151.258 59.3594 155.523C62.2656 159.789 63.7188 164.875 63.7188 170.781C63.7188 175.562 62.8281 180.062 61.0469 184.281C59.2656 188.453 56.8047 191.922 53.6641 194.688C50.5234 197.312 47.0078 199.188 43.1172 200.312C39.2266 201.438 33.7188 202 26.5938 202H0.929688ZM91.7734 116.781H74.1953V99.625H91.7734V116.781ZM74.1953 202V124.656H91.7734V202H74.1953ZM169.117 124.656H185.219V189.203C185.219 202.609 181.633 213.133 174.461 220.773C167.336 228.414 157.539 232.234 145.07 232.234C135.742 232.234 127.938 230.031 121.656 225.625C115.375 221.266 110.758 214.773 107.805 206.148H125.172C127.047 209.617 129.719 212.336 133.188 214.305C136.656 216.273 140.523 217.258 144.789 217.258C151.961 217.258 157.773 214.914 162.227 210.227C166.727 205.586 168.977 199.445 168.977 191.805V191.031C165.508 194.641 161.547 197.383 157.094 199.258C152.641 201.086 147.766 202 142.469 202C137.312 202 132.414 201.109 127.773 199.328C123.18 197.547 119.102 194.992 115.539 191.664C111.695 188.008 108.672 183.648 106.469 178.586C104.266 173.523 103.164 168.367 103.164 163.117C103.164 151.398 106.867 141.742 114.273 134.148C121.68 126.508 131.078 122.688 142.469 122.688C147.672 122.688 152.453 123.602 156.812 125.43C161.219 127.258 165.32 130.07 169.117 133.867V124.656ZM121.023 161.992C121.023 168.742 123.273 174.391 127.773 178.938C132.32 183.484 137.898 185.758 144.508 185.758C150.555 185.758 155.875 183.461 160.469 178.867C165.109 174.273 167.43 168.93 167.43 162.836C167.43 156.227 165.156 150.602 160.609 145.961C156.062 141.273 150.648 138.93 144.367 138.93C137.898 138.93 132.391 141.156 127.844 145.609C123.297 150.062 121.023 155.523 121.023 161.992ZM332.928 202C343.68 199.888 353.76 194.512 363.168 185.872C372.768 177.04 380.544 165.616 386.496 151.6C392.448 137.584 395.424 122.032 395.424 104.944C395.424 87.472 391.776 71.728 384.48 57.712C377.376 43.504 367.488 32.464 354.816 24.592C342.336 16.528 328.224 12.496 312.48 12.496C298.08 12.496 285.216 16.144 273.888 23.44C262.752 30.736 254.016 41.104 247.68 54.544C241.344 67.792 238.176 83.248 238.176 100.912C238.176 126.256 243.36 147.568 253.728 164.848C264.288 182.128 279.264 194.512 298.656 202H206.496C205.728 194.896 204.096 182.128 201.6 163.696C205.056 170.608 208.608 175.696 212.256 178.96C215.904 182.224 220.8 184.528 226.944 185.872C233.28 187.024 242.496 187.6 254.592 187.6C242.88 179.344 233.376 168.112 226.08 153.904C218.784 139.696 215.136 123.472 215.136 105.232C215.136 84.88 219.456 66.736 228.096 50.8C236.928 34.864 249.216 22.48 264.96 13.648C280.896 4.81599 299.232 0.399986 319.968 0.399986C337.248 0.399986 353.376 4.23999 368.352 11.92C383.52 19.408 395.616 30.736 404.64 45.904C413.856 61.072 418.464 79.312 418.464 100.624C418.464 119.248 414.72 136.144 407.232 151.312C399.744 166.288 389.28 178.384 375.84 187.6H388.224C398.016 187.6 405.408 186.928 410.4 185.584C415.584 184.048 419.52 181.744 422.208 178.672C425.088 175.6 428.256 170.608 431.712 163.696C429.216 182.128 427.584 194.896 426.816 202H332.928ZM462.461 124.656V133.445C465.086 129.93 468.086 127.328 471.461 125.641C474.883 123.953 478.773 123.109 483.133 123.109C489.367 123.109 494.688 124.211 499.094 126.414C503.547 128.617 507.367 132.062 510.555 136.75C513.602 132.156 517.023 128.734 520.82 126.484C524.617 124.234 528.812 123.109 533.406 123.109C542.875 123.109 550.141 126.086 555.203 132.039C560.266 137.992 562.797 146.523 562.797 157.633V202H545.078V167.758C545.078 157.258 543.906 150.133 541.562 146.383C539.266 142.586 535.258 140.688 529.539 140.688C523.586 140.688 519.32 142.82 516.742 147.086C514.211 151.305 512.945 158.57 512.945 168.883V202H495.086V167.758C495.086 157.305 493.891 150.18 491.5 146.383C489.156 142.586 485.031 140.688 479.125 140.688C473.125 140.688 468.812 142.82 466.188 147.086C463.562 151.305 462.25 158.57 462.25 168.883V202H444.883V124.656H462.461ZM635.219 154.75C633.672 149.594 631.07 145.68 627.414 143.008C623.805 140.289 619.234 138.93 613.703 138.93C608.922 138.93 604.633 140.383 600.836 143.289C597.039 146.195 594.484 150.016 593.172 154.75H635.219ZM592.539 169.023C593.148 174.602 595.352 179.008 599.148 182.242C602.992 185.43 607.938 187.023 613.984 187.023C618.016 187.023 621.625 186.18 624.812 184.492C628.047 182.805 630.602 180.438 632.477 177.391H651.883C648.602 185.828 643.68 192.391 637.117 197.078C630.602 201.719 623.055 204.039 614.477 204.039C608.711 204.039 603.391 203.031 598.516 201.016C593.688 198.953 589.352 195.93 585.508 191.945C581.852 188.148 579.016 183.766 577 178.797C574.984 173.781 573.977 168.648 573.977 163.398C573.977 158.008 574.891 152.945 576.719 148.211C578.594 143.43 581.336 139.141 584.945 135.344C588.883 131.172 593.336 127.961 598.305 125.711C603.273 123.461 608.406 122.336 613.703 122.336C620.406 122.336 626.664 123.859 632.477 126.906C638.289 129.953 643.234 134.242 647.312 139.773C649.797 143.102 651.625 146.828 652.797 150.953C654.016 155.078 654.625 159.812 654.625 165.156C654.625 165.578 654.602 166.234 654.555 167.125C654.508 167.969 654.484 168.602 654.484 169.023H592.539ZM727.117 124.656H743.219V189.203C743.219 202.609 739.633 213.133 732.461 220.773C725.336 228.414 715.539 232.234 703.07 232.234C693.742 232.234 685.938 230.031 679.656 225.625C673.375 221.266 668.758 214.773 665.805 206.148H683.172C685.047 209.617 687.719 212.336 691.188 214.305C694.656 216.273 698.523 217.258 702.789 217.258C709.961 217.258 715.773 214.914 720.227 210.227C724.727 205.586 726.977 199.445 726.977 191.805V191.031C723.508 194.641 719.547 197.383 715.094 199.258C710.641 201.086 705.766 202 700.469 202C695.312 202 690.414 201.109 685.773 199.328C681.18 197.547 677.102 194.992 673.539 191.664C669.695 188.008 666.672 183.648 664.469 178.586C662.266 173.523 661.164 168.367 661.164 163.117C661.164 151.398 664.867 141.742 672.273 134.148C679.68 126.508 689.078 122.688 700.469 122.688C705.672 122.688 710.453 123.602 714.812 125.43C719.219 127.258 723.32 130.07 727.117 133.867V124.656ZM679.023 161.992C679.023 168.742 681.273 174.391 685.773 178.938C690.32 183.484 695.898 185.758 702.508 185.758C708.555 185.758 713.875 183.461 718.469 178.867C723.109 174.273 725.43 168.93 725.43 162.836C725.43 156.227 723.156 150.602 718.609 145.961C714.062 141.273 708.648 138.93 702.367 138.93C695.898 138.93 690.391 141.156 685.844 145.609C681.297 150.062 679.023 155.523 679.023 161.992ZM772.398 162.695C772.398 169.211 774.555 174.672 778.867 179.078C783.227 183.438 788.523 185.617 794.758 185.617C800.43 185.617 805.422 183.414 809.734 179.008C814.047 174.602 816.203 169.445 816.203 163.539C816.203 157.258 814.023 151.867 809.664 147.367C805.352 142.82 800.289 140.547 794.477 140.547C788.383 140.547 783.18 142.703 778.867 147.016C774.555 151.281 772.398 156.508 772.398 162.695ZM818.242 202V192.508C816.086 196.352 813.039 199.188 809.102 201.016C805.211 202.844 800.219 203.758 794.125 203.758C782.688 203.758 773.125 199.867 765.438 192.086C757.797 184.258 753.977 174.555 753.977 162.977C753.977 157.539 754.938 152.383 756.859 147.508C758.781 142.633 761.523 138.344 765.086 134.641C768.93 130.562 773.195 127.562 777.883 125.641C782.57 123.672 787.844 122.688 793.703 122.688C799.328 122.688 804.156 123.625 808.188 125.5C812.266 127.375 815.547 130.211 818.031 134.008V124.656H835.609V202H818.242Z" fill="url(#paint0_linear)"/>
<defs>
<linearGradient id="paint0_linear" x1="418" y1="-48" x2="418" y2="282" gradientUnits="userSpaceOnUse">
<stop stop-color="#697FB9"/>
<stop offset="1" stop-color="#99C6FB"/>
</linearGradient>
</defs>
</svg>
